<svg version="1.1" id="Layer_1" xmlns="http://www.w3.org/2000/svg" xmlns:xlink="http://www.w3.org/1999/xlink" x="0px" y="0px"
	 width="100%" viewBox="256 278 500 460" enable-background="new 0 0 1024 1024" xml:space="preserve">
<path fill="#f97316" opacity="1.000000" stroke="none"
	d="
M529.000000,737.904785 
	C508.012115,737.685730 487.518677,738.468018 467.034576,737.380920 
	C413.272125,734.527771 369.900391,712.488647 339.302765,667.542603 
	C327.873474,650.753784 321.850037,631.716003 319.708954,611.520813 
	C316.118378,577.653870 325.051758,546.984863 343.422119,518.685852 
	C360.734161,492.017181 377.905884,465.257385 395.087524,438.504395 
	C396.034943,437.029236 397.458771,435.643219 397.167145,433.336304 
	C394.031921,431.522400 390.348175,431.122864 386.823975,430.534119 
	C379.074249,429.239563 371.511475,427.287689 364.093933,424.773315 
	C360.062897,423.406860 356.010284,423.071869 351.797180,423.323792 
	C326.302521,424.848175 301.998474,420.169708 279.612366,407.800049 
	C268.389252,401.598633 258.711182,393.339294 256.163696,379.550446 
	C255.549026,376.223511 255.584991,372.974670 256.469940,369.669922 
	C257.622131,365.367371 260.570374,363.344238 264.696655,362.805634 
	C267.689453,362.414978 270.638489,362.983459 273.615143,363.504089 
	C291.197906,366.579437 308.438751,366.048340 324.915894,358.208649 
	C333.024261,354.350739 338.903656,348.694000 342.570587,340.152496 
	C358.757904,302.446655 398.569611,278.309296 438.088409,282.348175 
	C477.267212,286.352325 508.507202,313.932648 520.458496,348.739044 
	C526.277405,365.685638 528.345764,382.832703 525.011536,400.332733 
	C522.804443,411.916595 518.743652,423.090546 515.063477,434.319580 
	C506.986877,458.963226 499.030029,483.646088 491.006653,508.307220 
	C490.131134,510.998199 489.102661,513.639282 488.217316,516.327271 
	C487.713043,517.858215 486.504395,519.547058 487.843628,521.023315 
	C489.257263,522.581604 491.003662,521.359009 492.474335,520.795959 
	C501.131622,517.482056 510.246246,516.549927 519.344971,515.652649 
	C531.549133,514.449219 543.590881,516.616577 555.599609,518.156616 
	C584.239807,521.829590 612.883362,523.551575 641.734314,521.052795 
	C665.870239,518.962280 689.562988,514.912659 712.392639,506.601227 
	C721.173401,503.404510 729.863770,499.745819 737.435974,494.288666 
	C746.653320,487.645935 754.855408,494.289276 755.156189,503.475342 
	C755.472290,513.130432 755.935791,522.792542 755.843384,532.446838 
	C755.645386,553.112122 753.874329,573.613525 749.346924,593.863037 
	C740.811340,632.039917 723.813965,665.747131 695.550110,692.956238 
	C667.464233,719.994019 633.766174,735.371460 594.465515,737.398376 
	C572.820801,738.514648 551.155334,737.732300 529.000000,737.904785 
M486.789276,450.354980 
	C490.498047,438.960022 494.380768,427.617859 497.860596,416.153381 
	C500.655914,406.944153 504.198334,397.899323 504.763885,388.116180 
	C505.559814,374.347656 502.400360,361.461578 497.070007,348.826599 
	C483.967346,317.768188 446.531128,296.711090 413.764404,305.209167 
	C390.435577,311.259521 374.254608,325.657593 363.337036,346.608429 
	C360.989288,351.113800 360.820648,355.724609 362.755829,360.587402 
	C367.849365,373.386627 378.045929,380.784119 389.720673,386.719635 
	C392.684631,388.226532 395.841980,389.449097 398.569000,391.304291 
	C403.083771,394.375671 403.683136,398.191650 401.163605,403.026794 
	C400.111938,405.045074 397.925385,406.432068 397.769348,408.925354 
	C398.940735,410.582855 400.666870,410.506958 402.297180,410.707611 
	C407.910278,411.398438 413.531769,412.031219 419.131134,412.820465 
	C428.786255,414.181488 432.644989,421.792053 428.031555,430.290863 
	C427.238281,431.752167 426.312836,433.146027 425.389648,434.531830 
	C408.491486,459.897156 391.603729,485.269470 374.657288,510.602539 
	C372.255646,514.192688 371.001068,517.948608 371.175293,522.319580 
	C371.918396,540.965027 372.301239,559.619202 371.223999,578.263306 
	C370.993378,582.254578 372.321716,584.544617 375.983032,586.498352 
	C387.270233,592.521362 390.476410,606.572205 381.241211,615.424744 
	C374.634521,621.757568 375.766388,626.602234 379.260071,632.897156 
	C379.743042,633.767273 380.048492,634.733948 380.472229,635.639038 
	C385.214386,645.769165 392.106262,654.218689 400.514130,661.529175 
	C402.946289,663.643860 405.110840,663.430359 407.759735,661.970459 
	C409.697510,660.902466 410.932373,659.940125 410.761139,657.452454 
	C410.218994,649.576782 402.762268,640.304626 395.192444,638.366272 
	C388.712280,636.706909 384.412781,630.769043 384.951202,624.222412 
	C385.531403,617.167908 391.622925,611.455261 398.983002,611.063354 
	C405.363983,610.723633 410.332733,615.030823 411.804535,621.991211 
	C412.568695,625.605103 412.089844,629.021545 410.264740,632.120178 
	C408.660156,634.844299 409.144226,637.087463 410.799866,639.512817 
	C413.139404,642.940002 416.077759,646.206299 416.614044,650.448425 
	C417.400269,656.667358 419.888885,660.559875 426.182037,663.227844 
	C434.442444,666.729797 437.641571,676.778992 434.610168,684.851990 
	C431.125031,694.133301 421.941864,699.666504 413.003815,697.870789 
	C404.034210,696.068604 396.316895,687.593750 398.158264,678.846436 
	C399.789673,671.096191 397.022217,667.334045 391.339539,663.608398 
	C388.907043,662.013550 387.062225,659.428650 385.176758,657.109619 
	C377.750214,647.975098 372.050537,637.857971 368.398224,626.644348 
	C367.560944,624.073730 366.291931,622.297241 363.457733,621.672485 
	C355.093689,619.828674 349.912720,614.668579 348.707123,606.149414 
	C347.373993,596.729431 350.753693,590.465515 359.552307,585.716431 
	C362.441589,584.156982 363.527191,582.225952 363.490204,578.975098 
	C363.346069,566.314026 363.518280,553.649414 363.382355,540.988159 
	C363.349915,537.965027 364.620941,534.742310 362.725433,531.747681 
	C360.110809,533.574036 360.138153,533.591370 358.883636,535.567688 
	C347.960297,552.775940 341.991516,571.329590 340.739990,591.897583 
	C339.040985,619.818909 347.094543,644.247437 364.333160,665.667908 
	C392.144440,700.225830 429.779388,715.279297 472.934235,716.423767 
	C513.888245,717.510010 554.897278,716.524902 595.882080,716.441223 
	C596.742676,716.439453 597.521057,716.175293 597.942566,715.315186 
	C594.830566,707.414307 594.630249,707.275269 586.470459,707.282227 
	C575.804688,707.291382 565.134033,707.505005 554.474243,707.256592 
	C539.359802,706.904358 524.233032,708.274902 509.138367,705.461853 
	C475.003204,699.100464 447.762054,682.346924 428.556915,653.226746 
	C417.942444,637.132324 411.547485,619.470886 409.467285,600.174011 
	C408.138397,587.846863 408.960052,575.537964 408.733917,563.225708 
	C408.658783,559.134827 407.778992,556.669983 403.827667,554.613831 
	C394.929535,549.983398 391.756165,538.807312 396.186066,530.014954 
	C400.835510,520.786804 411.426056,516.727722 420.670319,520.511353 
	C427.698517,523.388000 431.573853,528.645935 432.188904,536.065369 
	C432.848328,544.020020 429.919098,550.736511 422.860657,554.605164 
	C418.616150,556.931519 416.804840,559.549011 417.002991,564.341309 
	C417.319489,571.994568 417.285583,579.673767 417.093781,587.334351 
	C416.633148,605.736206 420.537659,623.174988 429.398346,639.228821 
	C449.692139,675.997253 480.568848,696.608459 522.913330,699.011353 
	C545.056702,700.268005 567.212891,698.687866 589.361389,699.099854 
	C592.382080,699.156067 594.250427,698.215637 595.578064,695.311890 
	C599.492920,686.750000 609.348816,681.264832 616.796204,683.187073 
	C626.995483,685.819519 632.271118,693.478271 631.486694,704.519592 
	C631.416443,705.507690 631.184021,706.528137 632.261536,707.329651 
	C634.121033,707.834595 635.696045,706.713379 637.353699,706.040466 
	C662.830811,695.698547 682.770508,678.270264 698.778015,656.421387 
	C727.611511,617.066040 735.323242,571.843872 733.982849,524.326172 
	C733.955017,523.339417 733.825745,522.303528 732.093811,521.415833 
	C691.889343,538.594849 649.156189,544.835327 605.043152,544.024353 
	C611.499268,549.151306 619.138733,550.735596 626.569580,552.711426 
	C643.348816,557.172913 660.560181,556.551758 677.703735,556.951477 
	C684.079834,557.100159 688.846924,556.686279 692.013611,549.657166 
	C695.073059,542.866089 704.076477,539.742737 710.815674,541.217224 
	C718.555847,542.910767 724.519287,549.529419 725.937073,558.000000 
	C727.029114,564.524658 723.637817,572.274170 717.010681,575.562805 
	C712.041321,578.028687 709.337341,580.929871 710.190247,586.571411 
	C710.285950,587.204346 710.043823,587.889343 709.952637,588.549377 
	C706.248657,615.356262 694.687561,638.384155 676.025452,657.792603 
	C672.390808,661.572571 670.806091,664.907043 671.382324,670.346130 
	C672.535095,681.226562 660.948303,688.647888 651.245239,683.800354 
	C644.644958,680.502991 641.706848,673.749023 643.765564,666.606323 
	C645.892883,659.225403 651.999268,655.305359 660.549866,656.975403 
	C664.890564,657.823181 667.420288,656.482910 670.067566,653.579956 
	C677.507751,645.421387 684.250427,636.756348 689.427734,626.983948 
	C696.421021,613.783813 701.466187,599.944397 702.801819,584.909851 
	C703.149902,580.991577 702.385742,578.220459 698.324707,576.611694 
	C694.857788,575.238281 691.955994,572.673035 690.587952,569.144287 
	C688.957214,564.938049 686.110718,563.899780 681.986511,564.339294 
	C668.496338,565.776733 655.031067,564.690002 641.630676,563.268677 
	C623.536011,561.349548 606.143738,556.551636 590.944519,546.330627 
	C583.724670,541.475525 576.008728,542.735962 568.454712,541.545105 
	C567.127502,541.335938 565.927734,542.241699 564.946411,543.214722 
	C560.103333,548.016907 555.265686,552.824646 550.404358,557.608398 
	C547.857117,560.114868 546.783508,562.724182 547.794006,566.551514 
	C548.893921,570.718201 548.963989,575.152771 546.144104,579.025574 
	C541.902466,584.851074 533.504028,587.142700 527.431946,584.075745 
	C520.629456,580.639832 517.528442,573.139282 519.924927,565.918152 
	C522.208679,559.036621 529.160217,554.794617 536.401184,555.862000 
	C537.696899,556.052917 539.067871,557.039368 540.279968,556.264648 
	C546.432434,552.332336 550.990356,546.872803 555.559143,540.937378 
	C541.814758,536.833801 521.143677,536.306213 507.761627,539.077454 
	C503.947113,539.867371 502.819672,541.767700 502.948029,545.262634 
	C503.125336,550.090698 503.844543,555.036560 503.094971,559.734680 
	C500.974243,573.027161 506.439362,582.813049 515.923950,591.307007 
	C518.582520,593.687866 521.135681,595.102478 524.737183,595.090698 
	C533.565491,595.061768 542.394714,595.273376 551.223389,595.399353 
	C554.394653,595.444641 556.850891,594.774292 558.515320,591.452820 
	C560.364807,587.761902 563.769653,585.465088 567.982239,584.797058 
	C575.180786,583.655823 581.848511,587.509094 583.918213,593.914185 
	C586.076416,600.593140 583.200989,608.510437 577.423828,611.795837 
	C571.334412,615.258911 563.867004,613.683411 559.338562,607.473938 
	C556.999817,604.267090 554.392761,603.165344 550.500183,603.269165 
	C541.007935,603.522339 531.503967,603.316895 522.004822,603.339417 
	C519.266663,603.345947 516.639343,603.124878 514.688416,600.892090 
	C509.208862,594.621094 503.732910,588.346680 498.285767,582.047485 
	C496.346375,579.804749 495.635040,577.166199 495.668732,574.187439 
	C495.764832,565.689209 495.750641,557.189270 495.706116,548.690369 
	C495.697021,546.952942 496.360382,544.973206 494.429138,543.559387 
	C490.245880,543.971497 489.094177,546.552307 489.145477,550.433655 
	C489.336914,564.915527 489.934662,579.425598 489.248260,593.871399 
	C488.900421,601.192749 489.691956,607.065918 495.061279,612.464417 
	C497.419006,614.834961 499.360077,616.150269 502.628387,616.074585 
	C542.780396,615.144592 582.938904,615.833923 623.094482,615.734558 
	C626.943359,615.725037 629.528931,614.868286 631.700928,611.343628 
	C635.279175,605.537231 641.398621,603.604614 647.284424,605.582703 
	C653.599121,607.704834 657.275085,612.837891 657.305420,619.576172 
	C657.335388,626.227844 653.399048,631.844666 647.419922,633.682129 
	C641.041321,635.642334 634.389771,633.771057 631.210815,628.152527 
	C628.931396,624.123962 626.059509,623.305115 621.857117,623.315552 
	C582.360840,623.413696 542.864014,623.388550 503.367737,623.260132 
	C499.223206,623.246643 496.276703,623.955139 493.899658,627.930969 
	C490.575134,633.491638 484.932098,635.279480 478.680939,633.997009 
	C472.585876,632.746704 468.839264,628.757751 467.294098,622.701416 
	C466.580322,619.903870 466.770996,617.078796 466.822235,614.249329 
	C467.099762,598.927551 467.395752,583.606018 467.616974,568.283386 
	C467.649078,566.058533 468.159424,563.595398 465.614624,561.566467 
	C459.048248,567.861877 454.125854,575.245178 449.544617,582.959900 
	C445.512970,589.749146 444.432892,596.728149 445.939545,604.492249 
	C448.744446,618.946716 455.619934,631.280457 464.403381,642.828857 
	C467.222229,646.534973 470.537933,648.046448 475.055939,648.024353 
	C508.551025,647.860779 542.046570,647.746033 575.541992,647.746643 
	C579.400879,647.746765 581.953491,646.801331 584.032959,643.182617 
	C587.653564,636.882080 594.912842,634.498779 601.794434,636.565674 
	C608.808411,638.672363 613.186584,644.748596 613.185120,652.374084 
	C613.183838,659.046021 608.325562,665.285767 601.731934,667.084045 
	C594.747498,668.988892 587.810181,666.491516 584.115479,660.003784 
	C582.103333,656.470459 579.778015,655.220947 575.774719,655.240112 
	C545.444641,655.385132 515.113647,655.309998 484.782928,655.343445 
	C483.193939,655.345215 481.441376,654.850525 480.079773,656.131104 
	C479.890228,657.440552 480.774384,657.998047 481.592285,658.536011 
	C495.596008,667.746765 510.769653,673.729187 527.561890,675.384216 
	C530.467041,675.670593 531.777832,674.417114 532.812256,671.966858 
	C535.356079,665.941284 540.310608,662.963867 546.567261,662.891113 
	C552.769409,662.818970 558.080505,665.487976 560.821960,671.323914 
	C562.567261,675.039246 565.137024,675.770264 568.789307,675.763733 
	C587.736816,675.729736 605.377747,670.672180 621.672180,661.346741 
	C648.563477,645.956665 667.284241,623.919312 674.966919,593.363403 
	C676.375549,587.760986 675.942017,587.145508 670.357300,587.112793 
	C657.525635,587.037598 644.690857,587.203735 631.862671,586.973694 
	C627.376160,586.893250 624.712769,588.030640 622.623657,592.484863 
	C618.712952,600.822937 610.209534,604.178406 601.186768,602.007568 
	C593.442078,600.144226 587.287170,592.458740 587.173523,584.509766 
	C587.045959,575.581970 592.859863,567.409973 600.937317,565.163818 
	C609.289856,562.841187 618.239807,566.089783 622.334167,573.944336 
	C624.790833,578.657166 628.111267,579.736755 632.800354,579.636414 
	C647.956970,579.312073 663.116394,579.083862 678.275879,578.944885 
	C683.841064,578.893860 684.832886,580.019409 684.261230,585.425781 
	C683.912354,588.725891 683.390747,592.041931 682.563110,595.251892 
	C675.862122,621.241089 661.470703,642.065735 640.088135,658.164978 
	C617.973633,674.815308 593.203369,683.740051 565.410950,683.781433 
	C563.215027,683.784729 562.235291,684.715210 561.160095,686.446411 
	C553.769348,698.345703 539.835999,698.404236 532.455444,686.624939 
	C531.355042,684.868713 530.260132,683.507935 527.891846,683.297424 
	C505.984406,681.350159 486.928589,672.666931 469.762207,659.106812 
	C437.463409,633.593323 421.703125,580.174011 455.344574,540.951294 
	C457.421204,538.530151 458.923157,535.770325 459.891724,532.690430 
	C462.138092,525.547363 464.472107,518.431580 466.807526,511.316864 
	C473.395264,491.247803 480.001587,471.184814 486.789276,450.354980 
M355.918091,386.559723 
	C353.577148,383.538422 351.042450,380.645691 348.935089,377.469421 
	C344.384979,370.611450 344.357788,370.329773 336.878784,374.266876 
	C323.382660,381.371460 309.079620,385.081512 293.876770,385.813751 
	C290.241699,385.988800 286.506470,384.195923 282.704742,386.012085 
	C298.047150,401.346161 355.073059,408.494476 370.634155,398.711029 
	C365.986237,394.553650 360.357056,391.778656 355.918091,386.559723 
M409.402893,670.796570 
	C407.509277,672.574829 406.512817,674.833557 405.954010,677.312866 
	C404.722687,682.775940 409.108887,689.364380 414.736115,690.528259 
	C420.385193,691.696655 427.087799,687.170166 427.702423,681.579712 
	C428.177246,677.261169 427.509308,673.060181 423.610352,670.452515 
	C419.227264,667.521057 414.556732,667.495300 409.402893,670.796570 
M711.405884,570.185059 
	C717.525757,567.261963 719.680176,561.916931 717.355103,555.425598 
	C715.565674,550.429688 710.249512,547.968445 704.204163,549.337097 
	C698.868408,550.545166 695.620178,555.462280 696.243958,561.387207 
	C696.930725,567.910278 702.635559,571.500061 711.405884,570.185059 
M616.601013,586.771667 
	C616.671448,585.444519 616.888123,584.106140 616.787598,582.792053 
	C616.283447,576.205261 611.076172,571.784790 604.581055,572.343323 
	C598.554077,572.861572 594.594116,578.236328 595.335022,584.892761 
	C595.867126,589.673340 599.407532,593.619629 604.101318,594.663879 
	C609.031067,595.760620 613.261963,593.310852 616.601013,586.771667 
M615.770264,712.673096 
	C616.538696,712.380249 617.363037,712.184448 618.066650,711.779053 
	C623.242981,708.796814 625.292969,703.347534 623.202942,698.248108 
	C621.054871,693.007019 616.015137,690.334717 610.283020,691.397400 
	C605.385925,692.305237 601.954102,697.153870 602.159180,702.875244 
	C602.424377,710.272339 605.994690,713.037109 615.770264,712.673096 
M373.970703,594.412048 
	C370.014404,591.196106 365.660217,591.027222 361.500854,593.559265 
	C356.681915,596.492798 356.492218,601.383179 357.181122,606.364502 
	C357.824493,611.016418 361.084320,613.167236 365.199799,614.075562 
	C369.845673,615.101013 373.752808,613.425537 376.420013,609.547546 
	C379.242920,605.443115 378.351410,599.641846 373.970703,594.412048 
M409.601685,527.785767 
	C408.721161,528.246338 407.749817,528.589294 406.975494,529.187317 
	C403.139557,532.149719 401.767059,537.663635 403.619293,542.781921 
	C405.282074,547.376831 409.092133,548.798401 413.491882,548.939697 
	C418.522980,549.101318 421.966125,546.774780 423.812805,541.965881 
	C427.014069,533.629639 420.298065,526.370667 409.601685,527.785767 
M475.118164,569.576599 
	C475.139587,580.058716 475.155640,590.540833 475.187103,601.022949 
	C475.192963,602.975464 475.433380,604.741882 478.070312,604.725891 
	C480.631439,604.710327 481.642670,603.352234 481.616608,600.956482 
	C481.612976,600.624207 481.658783,600.291565 481.659180,599.959106 
	C481.677643,584.482971 481.698120,569.006836 481.700775,553.530701 
	C481.700989,552.376953 481.735321,551.148438 480.365662,550.589050 
	C475.135162,552.226929 474.109375,553.559875 474.386597,558.667786 
	C474.566559,561.983582 474.879425,565.292114 475.118164,569.576599 
M551.318726,686.777283 
	C556.144836,682.987122 557.065552,678.858215 554.096680,674.320007 
	C551.547913,670.424011 546.308716,669.176392 542.216492,671.490967 
	C538.555115,673.561890 537.098022,678.854309 539.074341,682.903503 
	C541.234314,687.329041 545.938232,689.030945 551.318726,686.777283 
M593.022644,644.383667 
	C588.894165,647.234009 588.611694,651.124329 590.231079,655.375244 
	C591.610168,658.995544 594.616699,660.207275 598.222656,659.919067 
	C603.092896,659.529602 606.224243,655.282104 605.383240,650.463074 
	C604.406433,644.865540 600.295227,642.615723 593.022644,644.383667 
M477.595367,624.869507 
	C480.536041,627.348572 483.696838,627.358398 486.699524,625.232605 
	C489.227936,623.442505 489.813934,620.561584 489.319916,617.701233 
	C488.748169,614.390808 486.234344,612.774963 483.142487,612.028931 
	C480.196381,611.318054 477.752106,612.616577 476.248199,614.840515 
	C474.108917,618.004211 474.354309,621.382141 477.595367,624.869507 
M646.377075,626.062256 
	C647.756042,625.331238 648.828186,624.265869 649.258179,622.772034 
	C650.302368,619.144226 650.179199,615.758362 646.398743,613.689209 
	C643.215393,611.946777 638.845276,613.145935 637.200073,616.037598 
	C635.310852,619.358215 636.317505,623.537659 639.496155,625.743958 
	C641.455505,627.104065 643.535400,627.035034 646.377075,626.062256 
M537.284363,576.846497 
	C541.929993,573.023254 542.048401,567.125244 537.463989,564.562073 
	C534.774719,563.058533 532.002747,562.935242 529.622681,565.171387 
	C527.198120,567.449463 526.540466,570.287903 527.986694,573.341797 
	C529.726379,577.015259 532.638000,578.344238 537.284363,576.846497 
M660.509155,677.123108 
	C664.580322,675.171021 664.343445,671.658203 663.500305,668.167053 
	C662.845093,665.453979 660.725159,664.204163 657.959595,664.050598 
	C653.670105,663.812439 650.270142,666.775879 650.345398,670.709351 
	C650.432251,675.249512 654.222595,677.945801 660.509155,677.123108 
M563.734375,600.803345 
	C565.210022,604.603088 568.055298,606.292725 571.973389,605.482300 
	C574.719055,604.914307 576.682129,603.205505 576.928467,600.029602 
	C577.263550,595.707825 575.015320,592.586487 571.116699,592.215515 
	C567.029846,591.826599 564.139526,594.826965 563.734375,600.803345 
M397.905304,631.301208 
	C403.561279,630.635620 405.405670,628.640198 404.787354,623.855530 
	C404.334442,620.350647 401.385864,618.536499 397.394226,619.148010 
	C394.676392,619.564392 393.230042,621.205444 392.830444,623.729065 
	C392.262695,627.314697 393.651794,629.894287 397.905304,631.301208 
z"/>
</svg>