<svg version="1.1" id="Layer_1" xmlns="http://www.w3.org/2000/svg" xmlns:xlink="http://www.w3.org/1999/xlink" x="0px" y="0px"
	 width="100%" viewBox="168 228 578 674" enable-background="new 0 0 1024 1024" xml:space="preserve">
<path fill="none" opacity="1.000000" stroke="none" 
	d="
M656.000000,1025.000000 
	C437.333344,1025.000000 219.166672,1025.000000 1.000000,1025.000000 
	C1.000000,683.666687 1.000000,342.333344 1.000000,1.000000 
	C342.333344,1.000000 683.666687,1.000000 1025.000000,1.000000 
	C1025.000000,342.333344 1025.000000,683.666687 1025.000000,1025.000000 
	C902.166687,1025.000000 779.333313,1025.000000 656.000000,1025.000000 
M435.188934,248.719101 
	C416.792084,254.213608 398.395264,259.708099 379.236023,265.197540 
	C371.607605,267.470520 363.984009,269.759705 356.349915,272.013428 
	C332.811615,278.962372 309.255829,285.852783 285.756989,292.932465 
	C284.071564,293.440216 281.586273,295.236267 281.525970,296.529053 
	C281.225586,302.970673 281.612244,309.444336 281.449371,316.671814 
	C281.401093,358.264862 281.352783,399.857910 281.753784,442.178833 
	C279.565338,446.277191 279.121857,450.376678 281.286896,455.203186 
	C281.427155,463.693909 281.567383,472.184601 280.821564,480.845490 
	C272.027466,480.879333 263.233246,480.895935 254.439316,480.952515 
	C247.612228,480.996429 243.202744,484.620331 243.160919,490.159088 
	C243.117599,495.896820 247.715454,499.929291 254.518509,500.016388 
	C263.970825,500.137421 273.423920,500.194855 282.901642,501.125641 
	C283.607941,507.076202 283.899475,513.112427 285.106812,518.959534 
	C287.621246,531.137207 290.620331,543.214783 293.291565,556.133423 
	C295.684204,562.992737 298.076843,569.852112 300.591583,577.248413 
	C302.793396,582.440247 304.507721,587.911133 307.289490,592.770935 
	C315.253845,606.684937 323.651245,620.351074 331.833923,634.799072 
	C313.910889,664.499939 296.011719,694.215271 278.035797,723.884094 
	C275.695496,727.746704 274.182495,731.661438 277.974823,735.132874 
	C281.565430,738.419617 285.229126,736.733704 288.797546,734.242493 
	C312.777435,717.500854 336.806305,700.829163 360.868713,684.206238 
	C363.685211,682.260498 366.803223,680.751221 370.012878,679.694092 
	C399.353882,707.751160 431.797791,731.684387 466.897186,751.990906 
	C478.656616,758.794250 490.894379,764.770874 503.411743,771.669922 
	C510.480743,774.680603 517.492676,775.163513 525.107056,771.171814 
	C552.974670,757.295837 579.748108,741.571899 604.829590,723.109680 
	C613.294922,716.878418 621.139832,709.804138 629.969788,703.199402 
	C640.272400,693.949646 650.584473,684.710388 660.839355,675.408081 
	C661.211182,675.070801 661.020935,674.113708 661.079102,673.362488 
	C661.079102,673.362488 661.163025,673.368103 661.841675,673.804382 
	C662.577576,673.106995 663.313477,672.409546 664.452454,671.721069 
	C664.717712,671.570251 664.834229,671.343079 665.285889,670.727356 
	C665.381226,670.560669 665.476501,670.393921 666.123596,669.944763 
	C669.435608,666.263428 672.762512,662.595398 676.057190,658.898621 
	C693.756348,639.039307 708.636536,617.317688 719.968872,592.365417 
	C726.916321,577.526550 732.984680,562.380249 736.580139,545.602417 
	C738.687805,534.337158 741.376831,523.144287 742.790344,511.792603 
	C746.520447,481.835938 746.067200,451.701782 745.695862,420.581329 
	C745.620850,413.472076 745.545837,406.362823 745.749756,398.325165 
	C745.795837,365.870636 745.673828,333.414154 746.047241,300.963379 
	C746.112366,295.306824 744.126709,293.405640 739.064026,291.925537 
	C680.675659,274.855774 622.365417,257.519043 564.009155,240.338989 
	C550.802429,236.450943 537.498596,232.892487 523.457764,228.903519 
	C516.599548,226.790039 509.762817,226.421585 502.199005,229.064270 
	C498.700165,230.066132 495.192566,231.038513 491.703918,232.074722 
	C473.133972,237.590332 454.568756,243.121964 435.188934,248.719101 
M556.100037,901.810974 
	C556.895935,901.573608 557.682495,901.169067 558.489197,901.123718 
	C571.558960,900.388855 584.642029,899.852783 597.699585,898.948242 
	C607.035034,898.301575 616.375977,897.457886 625.643921,896.187500 
	C636.271179,894.730957 646.849060,892.858337 657.393921,890.876587 
	C665.002380,889.446655 673.308899,889.018188 679.896179,885.504028 
	C689.714294,880.266052 701.759583,878.246033 708.411194,867.533630 
	C710.407471,864.318665 712.604126,858.076660 709.804565,855.562561 
	C703.946716,850.302124 698.049255,844.754578 691.254822,840.960205 
	C684.301880,837.077393 676.458435,834.182739 668.650513,832.557190 
	C649.276062,828.523438 629.782288,824.846985 610.177490,822.206299 
	C595.283325,820.200195 580.152832,819.326904 565.113525,819.151001 
	C534.878601,818.797241 504.630127,819.014893 474.395355,819.501465 
	C460.172546,819.730347 445.943268,820.837524 431.762878,822.073853 
	C416.494659,823.405090 401.207031,824.870667 386.062469,827.165710 
	C370.248566,829.562073 354.351562,832.121643 338.953644,836.310913 
	C328.019379,839.285706 317.416260,844.726074 312.555573,856.296326 
	C311.354523,859.155273 310.919922,863.923340 312.502991,866.047546 
	C316.264954,871.095276 320.726715,876.653992 326.207489,879.165405 
	C336.447571,883.857788 347.479187,887.038208 358.426575,889.914795 
	C370.880341,893.187134 383.563263,895.314026 396.518646,896.263489 
	C414.131561,897.554260 431.617035,900.629883 449.232849,901.822083 
	C466.047760,902.960205 482.959991,902.943237 499.828857,902.925110 
	C518.275635,902.905334 536.721802,902.301880 556.100037,901.810974 
	M226.499039,458.219849 
	C232.656631,458.221466 238.814468,458.256805 244.971771,458.215668 
	C251.755386,458.170319 256.004059,454.467560 255.972290,448.717438 
	C255.940338,442.935364 251.750061,439.237976 244.906952,439.227570 
	C223.272339,439.194702 201.637497,439.204712 180.003006,439.278137 
	C173.265717,439.300995 168.994690,443.145782 168.978317,448.879333 
	C168.961716,454.691956 173.023682,458.181732 180.066360,458.203674 
	C195.210480,458.250854 210.354843,458.220184 226.499039,458.219849 
	M256.445099,522.135803 
	C242.452652,522.138428 228.459351,522.050903 214.468185,522.186096 
	C208.518936,522.243591 204.609589,526.389526 204.725067,531.942810 
	C204.835571,537.257812 208.691849,540.902771 214.601654,540.932617 
	C230.759293,541.013977 246.917679,541.025879 263.075409,540.968506 
	C269.350128,540.946228 273.142944,537.384949 273.253326,531.753540 
	C273.365509,526.028381 269.332672,522.262085 262.918427,522.133423 
	C261.086914,522.096680 259.253845,522.134644 256.445099,522.135803 
z"/>
<path fill="#010101" opacity="1.000000" stroke="none" 
	d="
M281.745941,454.478119 
	C279.121857,450.376678 279.565338,446.277191 281.558807,441.747681 
	C281.363831,441.316498 281.415222,441.175720 281.473145,441.587646 
	C282.195251,441.704834 282.859436,441.410065 283.870178,441.020966 
	C286.759460,440.381714 289.296600,439.394867 291.845703,439.363037 
	C309.562988,439.141571 327.282715,439.118378 345.259766,439.091309 
	C345.668701,439.059113 345.819519,438.967255 346.296173,438.626221 
	C346.632660,415.400482 346.665558,392.423859 346.636780,369.447357 
	C346.630341,364.302032 346.407776,359.157013 346.423340,353.570618 
	C346.587402,352.135254 346.810242,351.098389 346.605804,350.154022 
	C345.419128,344.671295 348.252075,342.935944 353.135468,341.598083 
	C366.538147,337.926392 379.771423,333.636292 393.477051,329.539124 
	C398.661896,328.021698 403.436401,326.539459 408.221863,325.093536 
	C421.477570,321.088409 434.737854,317.098419 448.391724,313.108582 
	C465.654541,308.111786 482.516724,303.091034 499.395721,298.127686 
	C501.568359,297.488770 503.186401,297.021362 503.160126,293.999481 
	C502.972260,272.386169 503.003052,250.770905 502.964355,229.156265 
	C509.762817,226.421585 516.599548,226.790039 523.818359,229.495224 
	C524.174133,250.889374 524.251953,271.692474 524.081970,292.493591 
	C524.054138,295.890869 524.934082,297.299500 528.346619,298.302979 
	C577.114258,312.643097 625.800171,327.262115 674.592773,341.515961 
	C679.683716,343.003204 681.309387,345.028534 681.069092,350.296539 
	C680.587280,360.858307 680.925964,371.457458 680.925964,382.112396 
	C702.784302,387.917328 724.127563,393.585449 745.470825,399.253571 
	C745.545837,406.362823 745.620850,413.472076 745.303711,420.891663 
	C723.706848,415.664734 702.502136,410.127441 681.045959,404.524506 
	C680.900513,405.766235 680.735901,406.564117 680.723633,407.364319 
	C680.162781,443.929382 682.472534,480.588318 677.008362,517.296021 
	C676.819458,518.015320 676.742004,518.434692 676.389099,519.133789 
	C675.052734,524.942383 673.991943,530.471313 672.709229,536.294189 
	C668.064636,553.587341 659.808289,568.879517 651.137451,584.290771 
	C641.457214,596.656067 631.978149,608.807068 622.503479,620.961304 
	C621.498901,622.250000 620.519897,623.558594 619.252319,625.019470 
	C614.597595,629.481567 610.396484,633.982300 605.804688,638.041077 
	C596.271240,646.467896 586.530579,654.660339 576.648438,662.986450 
	C576.108154,663.151428 575.925537,663.382568 575.546753,663.832153 
	C569.554932,668.175842 563.890503,672.404846 557.904602,676.690796 
	C547.386719,683.272888 537.140625,689.723083 527.052246,696.411316 
	C525.679871,697.321045 524.276489,699.417358 524.270447,700.969788 
	C524.178650,724.378052 524.318604,747.787231 524.404175,771.196167 
	C517.492676,775.163513 510.480743,774.680603 503.210876,770.922241 
	C503.020294,747.532654 502.950104,724.890198 503.130066,702.249634 
	C503.156219,698.956421 502.114349,697.248291 499.335754,695.582825 
	C476.900055,682.134155 455.369263,667.377197 435.393097,650.436096 
	C430.603058,646.373840 425.883392,642.228699 420.820312,637.852844 
	C403.668274,651.694031 386.724884,665.366882 369.781494,679.039673 
	C366.803223,680.751221 363.685211,682.260498 360.868713,684.206238 
	C336.806305,700.829163 312.777435,717.500854 288.797546,734.242493 
	C285.229126,736.733704 281.565430,738.419617 277.974823,735.132874 
	C274.182495,731.661438 275.695496,727.746704 278.035797,723.884094 
	C296.011719,694.215271 313.910889,664.499939 332.138916,634.257812 
	C346.023865,615.267822 359.603760,596.819153 372.510284,579.285217 
	C366.217041,565.490051 360.377319,552.688965 354.286896,539.338379 
	C347.070221,544.341980 339.734131,549.421082 332.405731,554.511169 
	C321.757416,561.907104 311.114624,569.310913 300.469482,576.711426 
	C298.076843,569.852112 295.684204,562.992737 293.734741,555.622681 
	C300.548676,550.706909 306.919403,546.301880 313.290100,541.896790 
	C311.025238,540.873169 309.102356,541.019348 307.209106,540.844543 
	C302.362762,540.397095 298.876678,536.681885 298.723114,531.984619 
	C298.568695,527.262390 301.749451,523.200378 306.444214,522.370667 
	C308.064514,522.084290 309.760864,522.181885 311.422455,522.181824 
	C335.226410,522.181396 359.030334,522.194336 382.834290,522.203857 
	C384.782806,522.204590 386.731323,522.203918 388.923157,522.203918 
	C388.923157,514.629089 388.923157,507.587372 388.923157,500.113800 
	C379.500366,500.113800 370.379059,500.099762 361.257782,500.116425 
	C335.130737,500.164124 309.003723,500.224274 282.876678,500.279541 
	C273.423920,500.194855 263.970825,500.137421 254.518509,500.016388 
	C247.715454,499.929291 243.117599,495.896820 243.160919,490.159088 
	C243.202744,484.620331 247.612228,480.996429 254.439316,480.952515 
	C263.233246,480.895935 272.027466,480.879333 281.744202,480.865906 
	C318.046997,480.886353 353.427155,480.886353 389.017822,480.886353 
	C389.017822,473.059540 389.017822,465.819855 389.017822,458.087738 
	C387.006226,458.087738 385.223450,458.085785 383.440674,458.088043 
	C352.998779,458.126831 322.555878,458.285675 292.116272,458.040802 
	C288.650177,458.012939 285.202271,455.720520 281.745941,454.478119 
M369.279694,619.045959 
	C345.840027,649.839783 322.400391,680.633606 298.960754,711.427429 
	C299.284149,711.731079 299.607574,712.034790 299.930969,712.338440 
	C301.156342,711.308044 302.387970,710.284973 303.606171,709.246155 
	C317.546173,697.359192 331.540833,685.535522 345.408112,673.564270 
	C362.038116,659.207947 378.558899,644.725098 395.756500,630.022888 
	C414.213684,614.124878 432.670898,598.226868 451.759491,582.054016 
	C467.108673,568.849976 482.457886,555.645996 498.428864,542.137817 
	C499.430786,541.420654 500.432709,540.703491 502.189026,539.446289 
	C502.189026,554.785034 502.189026,569.272705 502.189026,585.052429 
	C520.484985,571.588074 537.815613,558.834106 555.804688,545.892517 
	C556.912781,544.957642 557.969971,543.953247 559.137024,543.099060 
	C567.410339,537.043823 575.706177,531.019287 584.653931,524.809570 
	C603.011963,511.399536 621.369995,497.989441 640.014709,484.369995 
	C638.342834,483.102325 637.060608,482.071869 635.720764,481.122833 
	C606.258972,460.254578 576.827332,439.343445 547.308228,418.556427 
	C532.632629,408.222015 517.794556,398.118378 502.764862,387.470581 
	C502.572662,387.975128 502.380432,388.479645 502.050415,389.914337 
	C502.050415,407.204071 502.050415,424.493805 502.050415,442.714386 
	C496.476562,438.602356 491.957947,435.285278 487.456635,431.944946 
	C474.398682,422.254700 461.347656,412.555145 447.943390,402.267731 
	C436.655670,394.069794 425.367920,385.871826 413.723358,377.264191 
	C413.543976,377.837219 413.364594,378.410248 413.056915,379.914703 
	C413.148590,402.271576 413.240265,424.628448 413.150330,447.908905 
	C413.208557,465.267517 413.266785,482.626160 413.144531,500.908539 
	C413.213654,518.020569 413.282776,535.132568 413.206757,553.056946 
	C414.071899,558.854736 411.876221,563.304138 408.266357,567.920776 
	C395.199066,584.632629 382.630493,601.734436 369.279694,619.045959 
z"/>
<path fill="#18DAF1" opacity="1.000000" stroke="none" 
	d="
M745.610229,398.789368 
	C724.127563,393.585449 702.784302,387.917328 680.925964,382.112396 
	C680.925964,371.457458 680.587280,360.858307 681.069092,350.296539 
	C681.309387,345.028534 679.683716,343.003204 674.592773,341.515961 
	C625.800171,327.262115 577.114258,312.643097 528.346619,298.302979 
	C524.934082,297.299500 524.054138,295.890869 524.081970,292.493591 
	C524.251953,271.692474 524.174133,250.889374 524.209229,229.634613 
	C537.498596,232.892487 550.802429,236.450943 564.009155,240.338989 
	C622.365417,257.519043 680.675659,274.855774 739.064026,291.925537 
	C744.126709,293.405640 746.112366,295.306824 746.047241,300.963379 
	C745.673828,333.414154 745.795837,365.870636 745.610229,398.789368 
z"/>
<path fill="#0C8FE0" opacity="1.000000" stroke="none" 
	d="
M369.897186,679.366882 
	C386.724884,665.366882 403.668274,651.694031 420.820312,637.852844 
	C425.883392,642.228699 430.603058,646.373840 435.393097,650.436096 
	C455.369263,667.377197 476.900055,682.134155 499.335754,695.582825 
	C502.114349,697.248291 503.156219,698.956421 503.130066,702.249634 
	C502.950104,724.890198 503.020294,747.532654 502.961761,770.649963 
	C490.894379,764.770874 478.656616,758.794250 466.897186,751.990906 
	C431.797791,731.684387 399.353882,707.751160 369.897186,679.366882 
z"/>
<path fill="#0D9FE5" opacity="1.000000" stroke="none" 
	d="
M346.284729,354.011841 
	C346.407776,359.157013 346.630341,364.302032 346.636780,369.447357 
	C346.665558,392.423859 346.632660,415.400482 346.190247,438.479370 
	C345.506195,438.731659 345.253937,438.881622 345.001678,439.031616 
	C327.282715,439.118378 309.562988,439.141571 291.845703,439.363037 
	C289.296600,439.394867 286.759460,440.381714 283.342102,441.017700 
	C282.116669,441.131073 281.765961,441.153412 281.415222,441.175720 
	C281.415222,441.175720 281.363831,441.316498 281.334167,441.383728 
	C281.352783,399.857910 281.401093,358.264862 281.982300,316.366272 
	C283.729645,318.377625 284.944061,320.694519 286.430054,323.529480 
	C287.473755,322.167786 288.123688,321.283264 288.811554,320.429260 
	C290.878326,317.863190 292.562775,316.786133 296.783508,317.274231 
	C303.371674,318.036224 307.636688,322.516754 313.302155,324.486115 
	C316.699158,325.666901 319.689392,328.489197 322.366058,331.085449 
	C323.852478,332.527222 324.099213,335.161987 325.289520,337.011353 
	C328.003357,341.227844 330.183716,346.161072 336.500092,346.170410 
	C337.335510,346.171661 338.105988,347.762054 339.015106,348.478760 
	C341.406311,350.363708 343.857452,352.172638 346.284729,354.011841 
z"/>
<path fill="#13AEE8" opacity="1.000000" stroke="none" 
	d="
M677.119812,516.996094 
	C682.472534,480.588318 680.162781,443.929382 680.723633,407.364319 
	C680.735901,406.564117 680.900513,405.766235 681.045959,404.524506 
	C702.502136,410.127441 723.706848,415.664734 745.256958,421.395081 
	C746.067200,451.701782 746.520447,481.835938 742.790344,511.792603 
	C741.376831,523.144287 738.687805,534.337158 736.268494,545.546021 
	C733.717712,543.414673 730.419434,541.733948 729.468750,539.179504 
	C727.705688,534.442505 727.853271,528.874084 721.690491,527.013000 
	C721.339111,526.906860 721.109253,526.228760 720.921936,525.775818 
	C719.344299,521.962524 717.789795,518.139648 716.034729,513.845947 
	C712.072205,513.845947 707.514221,515.035706 704.113159,513.559753 
	C699.326660,511.482544 695.064087,507.776154 691.225891,504.091064 
	C688.863770,501.823151 687.151917,501.262695 685.085693,503.536743 
	C683.468079,505.317047 682.283081,507.517883 681.058777,509.620880 
	C679.657593,512.027954 678.425415,514.533386 677.119812,516.996094 
z"/>
<path fill="#0C93E1" opacity="1.000000" stroke="none" 
	d="
M524.755615,771.183960 
	C524.318604,747.787231 524.178650,724.378052 524.270447,700.969788 
	C524.276489,699.417358 525.679871,697.321045 527.052246,696.411316 
	C537.140625,689.723083 547.386719,683.272888 558.320862,676.812866 
	C560.138916,677.298584 561.304382,677.577454 562.283875,678.165833 
	C565.405518,680.041260 567.787781,680.860718 569.426636,676.172729 
	C569.886780,674.856628 573.141235,674.517395 575.113953,673.730103 
	C575.439331,674.333191 575.764648,674.936279 576.090027,675.539368 
	C575.319092,676.067078 574.507507,676.544800 573.784363,677.131470 
	C571.108765,679.302490 571.505798,680.936829 574.722107,681.961365 
	C575.821655,682.311584 577.132019,683.042786 578.053101,682.731995 
	C582.321777,681.291138 585.233032,682.235657 587.248474,686.490234 
	C587.673096,687.386719 589.890869,687.433899 591.282349,687.872437 
	C591.395325,687.448669 591.508240,687.024902 591.621155,686.601135 
	C590.514282,685.924744 589.252686,685.403625 588.359131,684.513184 
	C587.830261,683.986145 587.882690,682.875732 587.673706,682.027588 
	C588.561890,681.923706 589.603271,681.465820 590.313538,681.773132 
	C595.122498,683.854004 599.985962,685.867920 604.578125,688.369263 
	C607.510925,689.966797 609.793091,692.783569 612.752808,694.301086 
	C617.092773,696.526245 616.974976,699.353577 615.345337,703.185547 
	C614.667847,704.778625 614.937561,706.774597 614.776489,708.587280 
	C616.692322,708.049316 618.666504,707.660522 620.510681,706.939270 
	C623.474976,705.780029 626.353516,704.401184 629.268250,703.115051 
	C621.139832,709.804138 613.294922,716.878418 604.829590,723.109680 
	C579.748108,741.571899 552.974670,757.295837 524.755615,771.183960 
z"/>
<path fill="#10A9E7" opacity="1.000000" stroke="none" 
	d="
M346.423340,353.570618 
	C343.857452,352.172638 341.406311,350.363708 339.015106,348.478760 
	C338.105988,347.762054 337.335510,346.171661 336.500092,346.170410 
	C330.183716,346.161072 328.003357,341.227844 325.289520,337.011353 
	C324.099213,335.161987 323.852478,332.527222 322.366058,331.085449 
	C319.689392,328.489197 316.699158,325.666901 313.302155,324.486115 
	C307.636688,322.516754 303.371674,318.036224 296.783508,317.274231 
	C292.562775,316.786133 290.878326,317.863190 288.811554,320.429260 
	C288.123688,321.283264 287.473755,322.167786 286.430054,323.529480 
	C284.944061,320.694519 283.729645,318.377625 282.136169,315.983704 
	C281.612244,309.444336 281.225586,302.970673 281.525970,296.529053 
	C281.586273,295.236267 284.071564,293.440216 285.756989,292.932465 
	C309.255829,285.852783 332.811615,278.962372 356.349915,272.013428 
	C363.984009,269.759705 371.607605,267.470520 379.605774,265.558228 
	C376.440521,268.607788 372.905518,271.296631 368.858429,274.374969 
	C371.720612,276.307709 374.503479,277.952240 376.989197,279.963959 
	C378.242249,280.978027 378.956421,282.657928 379.914246,284.036743 
	C378.813110,284.777771 377.780701,285.666046 376.592468,286.220306 
	C375.274750,286.834900 373.814789,287.144531 372.450256,287.576294 
	C371.352722,291.764496 371.904846,295.164185 375.371582,297.968170 
	C377.281952,299.513336 378.414703,302.276978 380.487122,303.313660 
	C385.483795,305.813080 389.073517,310.655975 394.990662,311.670929 
	C396.436890,311.918976 398.205627,313.579590 398.691132,314.983307 
	C399.017090,315.925720 397.344208,317.559448 396.565674,318.883850 
	C396.475800,318.611572 396.385956,318.339325 396.296082,318.067047 
	C395.221313,321.908356 394.146515,325.749634 393.071716,329.590942 
	C379.771423,333.636292 366.538147,337.926392 353.135468,341.598083 
	C348.252075,342.935944 345.419128,344.671295 346.605804,350.154022 
	C346.810242,351.098389 346.587402,352.135254 346.423340,353.570618 
z"/>
<path fill="#0D9BE2" opacity="1.000000" stroke="none" 
	d="
M629.619019,703.157227 
	C626.353516,704.401184 623.474976,705.780029 620.510681,706.939270 
	C618.666504,707.660522 616.692322,708.049316 614.776489,708.587280 
	C614.937561,706.774597 614.667847,704.778625 615.345337,703.185547 
	C616.974976,699.353577 617.092773,696.526245 612.752808,694.301086 
	C609.793091,692.783569 607.510925,689.966797 604.578125,688.369263 
	C599.985962,685.867920 595.122498,683.854004 590.313538,681.773132 
	C589.603271,681.465820 588.561890,681.923706 587.673706,682.027588 
	C587.882690,682.875732 587.830261,683.986145 588.359131,684.513184 
	C589.252686,685.403625 590.514282,685.924744 591.621155,686.601135 
	C591.508240,687.024902 591.395325,687.448669 591.282349,687.872437 
	C589.890869,687.433899 587.673096,687.386719 587.248474,686.490234 
	C585.233032,682.235657 582.321777,681.291138 578.053101,682.731995 
	C577.132019,683.042786 575.821655,682.311584 574.722107,681.961365 
	C571.505798,680.936829 571.108765,679.302490 573.784363,677.131470 
	C574.507507,676.544800 575.319092,676.067078 576.090027,675.539368 
	C575.764648,674.936279 575.439331,674.333191 575.113953,673.730103 
	C573.141235,674.517395 569.886780,674.856628 569.426636,676.172729 
	C567.787781,680.860718 565.405518,680.041260 562.283875,678.165833 
	C561.304382,677.577454 560.138916,677.298584 558.642334,676.755920 
	C563.890503,672.404846 569.554932,668.175842 575.686768,664.164856 
	C577.071777,665.271790 577.989502,666.160828 578.907227,667.049805 
	C579.274719,666.659851 579.642273,666.269836 580.009766,665.879883 
	C578.964844,664.902954 577.919983,663.926025 576.875061,662.949097 
	C586.530579,654.660339 596.271240,646.467896 605.804688,638.041077 
	C610.396484,633.982300 614.597595,629.481567 619.637634,625.036743 
	C621.861267,625.247375 623.442749,625.532410 624.980408,625.971375 
	C628.317017,626.923950 631.615601,628.024902 634.992554,628.786682 
	C635.202209,628.833923 636.500061,626.362244 636.284546,625.259338 
	C636.112244,624.377808 634.406433,623.795959 632.297729,622.325562 
	C635.779175,621.794983 638.197693,621.438171 640.612122,621.055603 
	C643.708130,620.564941 645.493286,621.509094 644.715820,625.034973 
	C644.109436,625.374817 643.787170,625.679688 643.464905,625.984558 
	C643.674377,626.166138 643.883789,626.347656 644.093262,626.529236 
	C644.395569,626.019531 644.697815,625.509766 645.376282,625.005066 
	C649.282959,626.642273 652.706604,628.590698 656.370422,629.828186 
	C661.176636,631.451599 664.435425,633.668274 662.202942,639.719177 
	C669.488159,639.563477 667.013428,646.258118 669.730652,648.946411 
	C667.235718,652.562378 664.960022,655.862061 662.682739,659.160645 
	C661.527649,660.833801 659.028137,663.337219 659.455750,664.026367 
	C660.948242,666.432129 663.452148,668.210510 665.571716,670.227234 
	C665.476501,670.393921 665.381226,670.560669 664.887207,670.956238 
	C664.290039,671.317383 664.143616,671.493042 664.049316,671.712097 
	C663.313477,672.409546 662.577576,673.106995 661.473877,673.199463 
	C660.750122,671.853577 660.394226,671.112549 660.038330,670.371582 
	C659.173462,671.169128 658.308594,671.966736 657.443665,672.764282 
	C658.659973,672.991394 659.876282,673.218445 661.092590,673.445496 
	C661.020935,674.113708 661.211182,675.070801 660.839355,675.408081 
	C650.584473,684.710388 640.272400,693.949646 629.619019,703.157227 
z"/>
<path fill="#10A9E7" opacity="1.000000" stroke="none" 
	d="
M677.008362,517.296021 
	C678.425415,514.533386 679.657593,512.027954 681.058777,509.620880 
	C682.283081,507.517883 683.468079,505.317047 685.085693,503.536743 
	C687.151917,501.262695 688.863770,501.823151 691.225891,504.091064 
	C695.064087,507.776154 699.326660,511.482544 704.113159,513.559753 
	C707.514221,515.035706 712.072205,513.845947 716.034729,513.845947 
	C717.789795,518.139648 719.344299,521.962524 720.921936,525.775818 
	C721.109253,526.228760 721.339111,526.906860 721.690491,527.013000 
	C727.853271,528.874084 727.705688,534.442505 729.468750,539.179504 
	C730.419434,541.733948 733.717712,543.414673 736.032593,545.847046 
	C732.984680,562.380249 726.916321,577.526550 719.432739,592.621887 
	C715.860718,593.083679 712.824768,593.289001 709.728882,593.498413 
	C706.448669,586.110718 697.579834,585.237732 693.025940,586.191528 
	C690.085266,584.570984 687.599609,583.970581 686.377319,582.391968 
	C681.574585,576.188721 674.321838,575.314392 667.634644,573.238403 
	C666.968323,573.031555 665.250854,574.280884 664.937439,575.175293 
	C662.653076,581.696289 656.896362,582.692261 651.339905,584.077332 
	C659.808289,568.879517 668.064636,553.587341 673.055847,536.244629 
	C679.917358,530.436157 682.201355,524.306885 676.664612,518.854126 
	C676.742004,518.434692 676.819458,518.015320 677.008362,517.296021 
z"/>
<path fill="#0D9FE5" opacity="1.000000" stroke="none" 
	d="
M651.137451,584.290771 
	C656.896362,582.692261 662.653076,581.696289 664.937439,575.175293 
	C665.250854,574.280884 666.968323,573.031555 667.634644,573.238403 
	C674.321838,575.314392 681.574585,576.188721 686.377319,582.391968 
	C687.599609,583.970581 690.085266,584.570984 693.025940,586.191528 
	C697.579834,585.237732 706.448669,586.110718 709.728882,593.498413 
	C712.824768,593.289001 715.860718,593.083679 719.229492,592.932556 
	C708.636536,617.317688 693.756348,639.039307 676.057190,658.898621 
	C672.762512,662.595398 669.435608,666.263428 665.847656,670.085999 
	C663.452148,668.210510 660.948242,666.432129 659.455750,664.026367 
	C659.028137,663.337219 661.527649,660.833801 662.682739,659.160645 
	C664.960022,655.862061 667.235718,652.562378 669.730652,648.946411 
	C667.013428,646.258118 669.488159,639.563477 662.202942,639.719177 
	C664.435425,633.668274 661.176636,631.451599 656.370422,629.828186 
	C652.706604,628.590698 649.282959,626.642273 645.376221,625.005066 
	C645.493286,621.509094 643.708130,620.564941 640.612122,621.055603 
	C638.197693,621.438171 635.779175,621.794983 632.297729,622.325562 
	C634.406433,623.795959 636.112244,624.377808 636.284546,625.259338 
	C636.500061,626.362244 635.202209,628.833923 634.992554,628.786682 
	C631.615601,628.024902 628.317017,626.923950 624.980408,625.971375 
	C623.442749,625.532410 621.861267,625.247375 619.914307,624.875244 
	C620.519897,623.558594 621.498901,622.250000 622.503479,620.961304 
	C631.978149,608.807068 641.457214,596.656067 651.137451,584.290771 
z"/>
<path fill="#13B7EC" opacity="1.000000" stroke="none" 
	d="
M502.581665,229.110260 
	C503.003052,250.770905 502.972260,272.386169 503.160126,293.999481 
	C503.186401,297.021362 501.568359,297.488770 499.395721,298.127686 
	C482.516724,303.091034 465.654541,308.111786 448.392395,312.666626 
	C447.477539,304.489594 447.625946,297.048370 452.555389,290.278320 
	C454.774414,287.230682 452.470917,284.040771 448.393219,282.912140 
	C447.292206,282.607422 446.179657,281.675598 445.473083,280.731720 
	C442.585297,276.874237 440.394104,272.303314 436.906708,269.142120 
	C433.589600,266.135284 428.977783,264.556671 424.151855,261.922485 
	C423.858551,261.037292 423.148651,258.895020 422.087372,255.692352 
	C425.473267,254.453964 428.969696,253.366058 432.284149,251.873886 
	C433.717072,251.228775 434.774109,249.748779 436.001923,248.648026 
	C454.568756,243.121964 473.133972,237.590332 491.703918,232.074722 
	C495.192566,231.038513 498.700165,230.066132 502.581665,229.110260 
z"/>
<path fill="#13AEE8" opacity="1.000000" stroke="none" 
	d="
M435.595428,248.683563 
	C434.774109,249.748779 433.717072,251.228775 432.284149,251.873886 
	C428.969696,253.366058 425.473267,254.453964 422.087372,255.692352 
	C423.148651,258.895020 423.858551,261.037292 424.151855,261.922485 
	C428.977783,264.556671 433.589600,266.135284 436.906708,269.142120 
	C440.394104,272.303314 442.585297,276.874237 445.473083,280.731720 
	C446.179657,281.675598 447.292206,282.607422 448.393219,282.912140 
	C452.470917,284.040771 454.774414,287.230682 452.555389,290.278320 
	C447.625946,297.048370 447.477539,304.489594 447.996948,312.660461 
	C434.737854,317.098419 421.477570,321.088409 408.221863,325.093536 
	C403.436401,326.539459 398.661896,328.021698 393.477051,329.539154 
	C394.146515,325.749634 395.221313,321.908356 396.296082,318.067047 
	C396.385956,318.339325 396.475800,318.611572 396.565674,318.883850 
	C397.344208,317.559448 399.017090,315.925720 398.691132,314.983307 
	C398.205627,313.579590 396.436890,311.918976 394.990662,311.670929 
	C389.073517,310.655975 385.483795,305.813080 380.487122,303.313660 
	C378.414703,302.276978 377.281952,299.513336 375.371582,297.968170 
	C371.904846,295.164185 371.352722,291.764496 372.450256,287.576294 
	C373.814789,287.144531 375.274750,286.834900 376.592468,286.220306 
	C377.780701,285.666046 378.813110,284.777771 379.914246,284.036743 
	C378.956421,282.657928 378.242249,280.978027 376.989197,279.963959 
	C374.503479,277.952240 371.720612,276.307709 368.858429,274.374969 
	C372.905518,271.296631 376.440521,268.607788 379.986969,265.560791 
	C398.395264,259.708099 416.792084,254.213608 435.595428,248.683563 
z"/>
<path fill="#0C8FE0" opacity="1.000000" stroke="none" 
	d="
M300.530518,576.979919 
	C311.114624,569.310913 321.757416,561.907104 332.405731,554.511169 
	C339.734131,549.421082 347.070221,544.341980 354.286896,539.338379 
	C360.377319,552.688965 366.217041,565.490051 372.510284,579.285217 
	C359.603760,596.819153 346.023865,615.267822 332.161194,633.915527 
	C323.651245,620.351074 315.253845,606.684937 307.289490,592.770935 
	C304.507721,587.911133 302.793396,582.440247 300.530518,576.979919 
z"/>
<path fill="#0C93E1" opacity="1.000000" stroke="none" 
	d="
M282.889160,500.702576 
	C309.003723,500.224274 335.130737,500.164124 361.257782,500.116425 
	C370.379059,500.099762 379.500366,500.113800 388.923157,500.113800 
	C388.923157,507.587372 388.923157,514.629089 388.923157,522.203918 
	C386.731323,522.203918 384.782806,522.204590 382.834290,522.203857 
	C359.030334,522.194336 335.226410,522.181396 311.422455,522.181824 
	C309.760864,522.181885 308.064514,522.084290 306.444214,522.370667 
	C301.749451,523.200378 298.568695,527.262390 298.723114,531.984619 
	C298.876678,536.681885 302.362762,540.397095 307.209106,540.844543 
	C309.102356,541.019348 311.025238,540.873169 313.290100,541.896790 
	C306.919403,546.301880 300.548676,550.706909 293.799103,555.222778 
	C290.620331,543.214783 287.621246,531.137207 285.106812,518.959534 
	C283.899475,513.112427 283.607941,507.076202 282.889160,500.702576 
z"/>
<path fill="#0D9BE2" opacity="1.000000" stroke="none" 
	d="
M281.516418,454.840637 
	C285.202271,455.720520 288.650177,458.012939 292.116272,458.040802 
	C322.555878,458.285675 352.998779,458.126831 383.440674,458.088043 
	C385.223450,458.085785 387.006226,458.087738 389.017822,458.087738 
	C389.017822,465.819855 389.017822,473.059540 389.017822,480.886353 
	C353.427155,480.886353 318.046997,480.886353 282.187195,480.780823 
	C281.567383,472.184601 281.427155,463.693909 281.516418,454.840637 
z"/>
<path fill="#010101" opacity="1.000000" stroke="none" 
	d="
M225.999084,458.220612 
	C210.354843,458.220184 195.210480,458.250854 180.066360,458.203674 
	C173.023682,458.181732 168.961716,454.691956 168.978317,448.879333 
	C168.994690,443.145782 173.265717,439.300995 180.003006,439.278137 
	C201.637497,439.204712 223.272339,439.194702 244.906952,439.227570 
	C251.750061,439.237976 255.940338,442.935364 255.972290,448.717438 
	C256.004059,454.467560 251.755386,458.170319 244.971771,458.215668 
	C238.814468,458.256805 232.656631,458.221466 225.999084,458.220612 
z"/>
<path fill="#010101" opacity="1.000000" stroke="none" 
	d="
M256.933289,522.137085 
	C259.253845,522.134644 261.086914,522.096680 262.918427,522.133423 
	C269.332672,522.262085 273.365509,526.028381 273.253326,531.753540 
	C273.142944,537.384949 269.350128,540.946228 263.075409,540.968506 
	C246.917679,541.025879 230.759293,541.013977 214.601654,540.932617 
	C208.691849,540.902771 204.835571,537.257812 204.725067,531.942810 
	C204.609589,526.389526 208.518936,522.243591 214.468185,522.186096 
	C228.459351,522.050903 242.452652,522.138428 256.933289,522.137085 
z"/>
<path fill="#0D9BE2" opacity="1.000000" stroke="none" 
	d="
M664.250854,671.716553 
	C664.143616,671.493042 664.290039,671.317383 664.645203,671.112305 
	C664.834229,671.343079 664.717712,671.570251 664.250854,671.716553 
z"/>
<path fill="#A9F12C" opacity="1.000000" stroke="none" 
	d="
M448.293884,402.859253 
	C461.347656,412.555145 474.398682,422.254700 487.456635,431.944946 
	C491.957947,435.285278 496.476562,438.602356 502.050415,442.714386 
	C502.050415,424.493805 502.050415,407.204071 502.315735,389.319519 
	C502.817932,388.501343 502.967560,388.229919 503.029938,387.910370 
	C517.794556,398.118378 532.632629,408.222015 547.308228,418.556427 
	C576.827332,439.343445 606.258972,460.254578 635.720764,481.122833 
	C637.060608,482.071869 638.342834,483.102325 640.014709,484.369995 
	C621.369995,497.989441 603.011963,511.399536 584.178040,524.561646 
	C583.609924,521.936218 583.795715,519.504944 583.349060,517.195984 
	C582.882690,514.784546 581.860779,512.470581 580.980347,510.152557 
	C580.361206,508.522400 580.005432,506.368561 578.781799,505.467651 
	C574.348755,502.203857 569.519958,499.483643 564.998169,496.332123 
	C562.253784,494.419403 559.819580,492.820984 557.571533,497.178192 
	C554.519897,495.000061 550.810242,493.650879 549.446411,491.064636 
	C547.555481,487.478882 544.916870,486.132751 541.565125,484.975342 
	C538.793762,484.018372 534.955444,483.487976 533.656494,481.450867 
	C530.335632,476.242676 524.138489,476.104279 519.943298,472.316803 
	C516.289307,469.018036 508.949493,471.087677 506.203674,464.864594 
	C505.931213,464.247101 504.801666,464.042786 504.132843,463.559570 
	C499.138763,459.950958 494.160583,456.320404 488.995392,452.564331 
	C489.602539,451.305664 490.224182,450.016907 490.897736,448.620483 
	C487.889679,446.125519 485.021271,443.746368 482.158569,441.371948 
	C483.592224,439.711060 484.751007,438.368591 486.776611,436.021912 
	C477.137512,439.365997 476.946198,439.512177 472.454742,433.634155 
	C471.517731,432.407928 472.570892,429.660980 472.736816,427.164948 
	C467.182129,422.247986 460.979645,416.697205 454.692047,411.244568 
	C453.480988,410.194275 451.512238,409.829498 450.649017,408.612335 
	C449.481445,406.965942 449.044373,404.801453 448.293884,402.859253 
z"/>
<path fill="#A5ED2D" opacity="1.000000" stroke="none" 
	d="
M448.118652,402.563477 
	C449.044373,404.801453 449.481445,406.965942 450.649017,408.612335 
	C451.512238,409.829498 453.480988,410.194275 454.692047,411.244568 
	C460.979645,416.697205 467.182129,422.247986 472.736816,427.164948 
	C472.570892,429.660980 471.517731,432.407928 472.454742,433.634155 
	C476.946198,439.512177 477.137512,439.365997 486.776611,436.021912 
	C484.751007,438.368591 483.592224,439.711060 482.158569,441.371948 
	C485.021271,443.746368 487.889679,446.125519 490.897736,448.620483 
	C490.224182,450.016907 489.602539,451.305664 488.995392,452.564331 
	C494.160583,456.320404 499.138763,459.950958 504.132843,463.559570 
	C504.801666,464.042786 505.931213,464.247101 506.203674,464.864594 
	C508.949493,471.087677 516.289307,469.018036 519.943298,472.316803 
	C524.138489,476.104279 530.335632,476.242676 533.656494,481.450867 
	C534.955444,483.487976 538.793762,484.018372 541.565125,484.975342 
	C544.916870,486.132751 547.555481,487.478882 549.446411,491.064636 
	C550.810242,493.650879 554.519897,495.000061 557.571533,497.178192 
	C559.819580,492.820984 562.253784,494.419403 564.998169,496.332123 
	C569.519958,499.483643 574.348755,502.203857 578.781799,505.467651 
	C580.005432,506.368561 580.361206,508.522400 580.980347,510.152557 
	C581.860779,512.470581 582.882690,514.784546 583.349060,517.195984 
	C583.795715,519.504944 583.609924,521.936218 583.848511,524.649414 
	C575.706177,531.019287 567.410339,537.043823 559.137024,543.099060 
	C557.969971,543.953247 556.912781,544.957642 555.177002,545.746582 
	C554.545959,536.938049 546.117859,533.104187 543.271484,526.051697 
	C543.067749,525.546997 541.882751,525.374084 541.121094,525.168884 
	C535.520996,523.660339 528.238342,527.226807 524.582336,519.575989 
	C524.274292,518.931335 522.084595,519.294128 520.823425,518.974609 
	C517.966248,518.250671 515.060669,517.601990 512.330933,516.526306 
	C509.973877,515.597473 507.832581,514.121094 505.314606,512.731506 
	C504.607208,509.097412 499.407593,504.993774 494.910553,503.891205 
	C490.767792,502.875488 486.724365,501.709625 484.502563,496.861267 
	C483.328918,494.300110 479.616699,492.839783 476.931213,491.062897 
	C475.757782,490.286499 474.037903,490.258148 472.990265,489.382629 
	C467.829865,485.070251 462.835693,480.559814 457.738129,476.171234 
	C448.318604,468.061737 438.866272,459.990356 429.434418,451.895172 
	C428.931396,451.463409 428.488556,450.960999 428.022308,450.486938 
	C424.529816,446.935883 421.038422,443.383698 417.718536,440.006683 
	C414.213562,441.612915 418.435364,446.928833 413.331940,446.985321 
	C413.240265,424.628448 413.148590,402.271576 413.337097,379.282227 
	C413.771606,378.324432 413.925903,377.999146 414.080200,377.673859 
	C425.367920,385.871826 436.655670,394.069794 448.118652,402.563477 
z"/>
<path fill="#9FE730" opacity="1.000000" stroke="none" 
	d="
M413.241150,447.447113 
	C418.435364,446.928833 414.213562,441.612915 417.718536,440.006683 
	C421.038422,443.383698 424.529816,446.935883 428.022308,450.486938 
	C428.488556,450.960999 428.931396,451.463409 429.434418,451.895172 
	C438.866272,459.990356 448.318604,468.061737 457.738129,476.171234 
	C462.835693,480.559814 467.829865,485.070251 472.990265,489.382629 
	C474.037903,490.258148 475.757782,490.286499 476.931213,491.062897 
	C479.616699,492.839783 483.328918,494.300110 484.502563,496.861267 
	C486.724365,501.709625 490.767792,502.875488 494.910553,503.891205 
	C499.407593,504.993774 504.607208,509.097412 505.314606,512.731506 
	C507.832581,514.121094 509.973877,515.597473 512.330933,516.526306 
	C515.060669,517.601990 517.966248,518.250671 520.823425,518.974609 
	C522.084595,519.294128 524.274292,518.931335 524.582336,519.575989 
	C528.238342,527.226807 535.520996,523.660339 541.121094,525.168884 
	C541.882751,525.374084 543.067749,525.546997 543.271484,526.051697 
	C546.117859,533.104187 554.545959,536.938049 554.847778,545.840393 
	C537.815613,558.834106 520.484985,571.588074 502.189026,585.052429 
	C502.189026,569.272705 502.189026,554.785034 502.189026,539.446289 
	C500.432709,540.703491 499.430786,541.420654 497.681885,542.162476 
	C490.718964,539.796936 484.288330,538.287781 478.468628,534.492493 
	C472.042725,530.301819 464.610168,527.654785 457.616089,524.335388 
	C456.878571,523.985352 455.991333,523.793945 455.426758,523.260864 
	C450.321838,518.440491 445.606567,513.134155 440.103516,508.831818 
	C435.653961,505.353088 430.066010,503.368286 425.372345,500.152557 
	C421.313416,497.371674 417.782013,494.688080 413.810486,499.960480 
	C413.747986,500.043396 413.491180,499.979919 413.325043,499.984772 
	C413.266785,482.626160 413.208557,465.267517 413.241150,447.447113 
z"/>
<path fill="#98E232" opacity="1.000000" stroke="none" 
	d="
M413.234802,500.446655 
	C413.491180,499.979919 413.747986,500.043396 413.810486,499.960480 
	C417.782013,494.688080 421.313416,497.371674 425.372345,500.152557 
	C430.066010,503.368286 435.653961,505.353088 440.103516,508.831818 
	C445.606567,513.134155 450.321838,518.440491 455.426758,523.260864 
	C455.991333,523.793945 456.878571,523.985352 457.616089,524.335388 
	C464.610168,527.654785 472.042725,530.301819 478.468628,534.492493 
	C484.288330,538.287781 490.718964,539.796936 497.370972,542.314575 
	C482.457886,555.645996 467.108673,568.849976 451.304932,581.859497 
	C448.510529,578.338562 446.292297,574.916199 443.777069,571.728210 
	C442.604004,570.241333 440.894897,569.156860 439.356476,567.984863 
	C437.955200,566.917358 436.382446,566.069458 435.014832,564.964417 
	C431.704590,562.289673 428.745270,559.053894 425.126984,556.922913 
	C421.530884,554.804993 417.302856,553.760010 413.351898,552.244568 
	C413.282776,535.132568 413.213654,518.020569 413.234802,500.446655 
z"/>
<path fill="#8DD634" opacity="1.000000" stroke="none" 
	d="
M413.279327,552.650757 
	C417.302856,553.760010 421.530884,554.804993 425.126984,556.922913 
	C428.745270,559.053894 431.704590,562.289673 435.014832,564.964417 
	C436.382446,566.069458 437.955200,566.917358 439.356476,567.984863 
	C440.894897,569.156860 442.604004,570.241333 443.777069,571.728210 
	C446.292297,574.916199 448.510529,578.338562 450.989258,581.996887 
	C432.670898,598.226868 414.213684,614.124878 395.278381,629.803711 
	C393.398834,624.671082 391.019562,620.867676 385.123444,621.035706 
	C384.978760,621.039795 384.802032,620.925598 384.686981,620.817017 
	C380.682190,617.036011 376.400330,618.034180 371.966370,619.918091 
	C371.522919,620.106506 370.583130,619.126709 369.873688,618.689087 
	C382.630493,601.734436 395.199066,584.632629 408.266357,567.920776 
	C411.876221,563.304138 414.071899,558.854736 413.279327,552.650757 
z"/>
<path fill="#85CF39" opacity="1.000000" stroke="none" 
	d="
M369.576691,618.867554 
	C370.583130,619.126709 371.522919,620.106506 371.966370,619.918091 
	C376.400330,618.034180 380.682190,617.036011 384.686981,620.817017 
	C384.802032,620.925598 384.978760,621.039795 385.123444,621.035706 
	C391.019562,620.867676 393.398834,624.671082 394.963623,629.940796 
	C378.558899,644.725098 362.038116,659.207947 345.408112,673.564270 
	C331.540833,685.535522 317.546173,697.359192 303.606171,709.246155 
	C302.387970,710.284973 301.156342,711.308044 299.930969,712.338440 
	C299.607574,712.034790 299.284149,711.731079 298.960754,711.427429 
	C322.400391,680.633606 345.840027,649.839783 369.576691,618.867554 
z"/>
<path fill="#13AEE8" opacity="1.000000" stroke="none" 
	d="
M676.389099,519.133789 
	C682.201355,524.306885 679.917358,530.436157 673.277710,535.950745 
	C673.991943,530.471313 675.052734,524.942383 676.389099,519.133789 
z"/>
<path fill="#0C93E1" opacity="1.000000" stroke="none" 
	d="
M576.648438,662.986450 
	C577.919983,663.926025 578.964844,664.902954 580.009766,665.879883 
	C579.642273,666.269836 579.274719,666.659851 578.907227,667.049805 
	C577.989502,666.160828 577.071777,665.271790 576.014038,664.050049 
	C575.925537,663.382568 576.108154,663.151428 576.648438,662.986450 
z"/>
<path fill="#98E232" opacity="1.000000" stroke="none" 
	d="
M502.897400,387.690491 
	C502.967560,388.229919 502.817932,388.501343 502.384644,388.854431 
	C502.380432,388.479645 502.572662,387.975128 502.897400,387.690491 
z"/>
<path fill="#8DD634" opacity="1.000000" stroke="none" 
	d="
M413.901794,377.469025 
	C413.925903,377.999146 413.771606,378.324432 413.401245,378.816498 
	C413.364594,378.410248 413.543976,377.837219 413.901794,377.469025 
z"/>
<path fill="#10A9E7" opacity="1.000000" stroke="none" 
	d="
M345.259766,439.091278 
	C345.253937,438.881622 345.506195,438.731659 345.864380,438.728577 
	C345.819519,438.967255 345.668701,439.059113 345.259766,439.091278 
z"/>
<path fill="#10A9E7" opacity="1.000000" stroke="none" 
	d="
M281.473145,441.587646 
	C281.765961,441.153412 282.116669,441.131073 282.995514,441.112061 
	C282.859436,441.410065 282.195251,441.704834 281.473145,441.587646 
z"/>
</svg>